<svg width="21" height="21" viewBox="0 0 21 21" fill="none" xmlns="http://www.w3.org/2000/svg">
<path d="M4.65631 16.995V3.81422H10.4534V7.93322H14.5942V9.36538L16.3333 9.80167L16.1579 7.10942L11.2816 2.16663H4.65631C3.74156 2.16663 3 2.90428 3 3.81422V16.995C3 17.9049 3.74156 18.6426 4.65631 18.6426H13.2475L11.764 16.995H4.65631ZM9.12517 7.41436C10.2406 7.38266 9.50762 9.8872 9.50762 9.8872C9.81836 11.0681 11.1171 11.9162 11.1171 11.9162C11.4638 11.8127 12.9768 11.5005 13.1098 12.207C13.1296 12.3122 12.3895 12.9106 12.1872 12.9862C11.5141 13.2375 10.6789 12.7801 10.6789 12.7801C9.12517 12.8911 7.96188 13.3032 7.96188 13.3032C7.06154 14.9755 6.0098 15.7047 5.57955 14.9993C5.04571 14.1195 7.27666 12.9862 7.27666 12.9862C8.43198 11.1236 8.60727 10.0378 8.6232 10.0061C8.43198 9.3958 8.00969 7.44607 9.12517 7.41436Z" fill="#1669BB"/>
<path fill-rule="evenodd" clip-rule="evenodd" d="M14.4649 11.067H16.8013V14.6071L18.8674 14.6261L15.5681 19.4375L12.1872 14.6261H14.4649V11.067Z" fill="#1669BB"/>
</svg>
